HIERARCHY
ROOT root
{
	OFFSET	0	13.1	24.9
	CHANNELS 6  Xposition Yposition Zposition Xrotation Yrotation Zrotation
	JOINT spine_1
	{
		OFFSET	0	9.99999	0
		CHANNELS 3  Xrotation Yrotation Zrotation
		JOINT spine_2
		{
			OFFSET	0	112	-10
			CHANNELS 3  Xrotation Yrotation Zrotation
			JOINT spine_3
			{
				OFFSET	0	206.5	19.3
				CHANNELS 3  Xrotation Yrotation Zrotation
				JOINT spine_4
				{
					OFFSET	0	110.4	14.6
					CHANNELS 3  Xrotation Yrotation Zrotation
					JOINT neck_1
					{
						OFFSET	0	71.8	-50.3
						CHANNELS 3  Xrotation Yrotation Zrotation
						JOINT neck_2
						{
							OFFSET	0	86.2	-25.8
							CHANNELS 3  Xrotation Yrotation Zrotation
							JOINT head_ee
							{
								OFFSET	0	179.8	-8.7
								CHANNELS 3  Xrotation Yrotation Zrotation
								End Site
								{
									OFFSET	1	0	0
								}
							}
						}
					}
					JOINT left_clavicle
					{
						OFFSET	-43.2	22.4	-70.8
						CHANNELS 3  Xrotation Yrotation Zrotation
						JOINT left_shoulder
						{
							OFFSET	-93.9	-5.79999	48.7
							CHANNELS 3  Xrotation Yrotation Zrotation
							JOINT left_elbow
							{
								OFFSET	-291.4	-30.8	15.2
								CHANNELS 3  Xrotation Yrotation Zrotation
								JOINT left_lowarm_twist
								{
									OFFSET	-110.7	-3.89999	13.6
									CHANNELS 3  Xrotation Yrotation Zrotation
									JOINT left_hand
									{
										OFFSET	-110.7	-3.89999	13.6
										CHANNELS 3  Xrotation Yrotation Zrotation
										JOINT left_ee
										{
											OFFSET	-80.8	-5.10001	12.1
											CHANNELS 3  Xrotation Yrotation Zrotation
											End Site
											{
												OFFSET	1	0	0
											}
										}
									}
								}
							}
						}
					}
					JOINT right_clavicle
					{
						OFFSET	43.2	22.4	-70.8
						CHANNELS 3  Xrotation Yrotation Zrotation
						JOINT right_shoulder
						{
							OFFSET	93.9	-5.79999	48.7
							CHANNELS 3  Xrotation Yrotation Zrotation
							JOINT right_elbow
							{
								OFFSET	291.4	-30.8	15.2
								CHANNELS 3  Xrotation Yrotation Zrotation
								JOINT right_lowarm_twist
								{
									OFFSET	110.7	-3.89999	13.6
									CHANNELS 3  Xrotation Yrotation Zrotation
									JOINT right_hand
									{
										OFFSET	110.7	-3.89999	13.6
										CHANNELS 3  Xrotation Yrotation Zrotation
										JOINT right_ee
										{
											OFFSET	80.8	-5.10001	12.1
											CHANNELS 3  Xrotation Yrotation Zrotation
											End Site
											{
												OFFSET	1	0	0
											}
										}
									}
								}
							}
						}
					}
				}
			}
		}
	}
	JOINT left_hip
	{
		OFFSET	-82.8	-127.5	0.300001
		CHANNELS 3  Xrotation Yrotation Zrotation
		JOINT left_knee
		{
			OFFSET	-28.2	-396.7	2.2
			CHANNELS 3  Xrotation Yrotation Zrotation
			JOINT left_ankle
			{
				OFFSET	-11.7	-411.3	35.4
				CHANNELS 3  Xrotation Yrotation Zrotation
				JOINT left_toes
				{
					OFFSET	0	-60	-88.6
					CHANNELS 3  Xrotation Yrotation Zrotation
					JOINT left_foot_ee
					{
						OFFSET	-22.5	-16.5	-42.2
						CHANNELS 3  Xrotation Yrotation Zrotation
						End Site
						{
							OFFSET	1	0	0
						}
					}
				}
			}
		}
	}
	JOINT right_hip
	{
		OFFSET	82.8	-127.5	0.300001
		CHANNELS 3  Xrotation Yrotation Zrotation
		JOINT right_knee
		{
			OFFSET	28.2	-396.7	2.2
			CHANNELS 3  Xrotation Yrotation Zrotation
			JOINT right_ankle
			{
				OFFSET	11.7	-411.3	35.4
				CHANNELS 3  Xrotation Yrotation Zrotation
				JOINT right_toes
				{
					OFFSET	0	-60	-88.6
					CHANNELS 3  Xrotation Yrotation Zrotation
					JOINT right_foot_ee
					{
						OFFSET	22.5	-16.5	-42.2
						CHANNELS 3  Xrotation Yrotation Zrotation
						End Site
						{
							OFFSET	1	0	0
						}
					}
				}
			}
		}
	}
}
MOTION
Frames: 5
Frame Time: 0.02
3391.32985857 711.297 -1562.21511079 -179.835348707 88.2854970221 176.417799728 1.22456 0.240925 1.19684 1.22534 0.164284 1.20974 1.22898 -0.067512 1.21897 1.22693 0.125835 1.21434 0.673863 -0.1728 -2.97313 0.706318 2.15186 -3.2408 -0.0 0.0 -0.0 -2.03476 23.1528 -0.122607 -14.6163 -14.9785 77.3422 1.21944 -31.1339 0.339727 -49.1895 -3.97711 4.63984 0.570471 29.1286 14.5416 -0.0 0.0 -0.0 10.7786 -6.79275 -20.7022 -29.6743 37.0827 -56.8468 0.284988 8.0358 -0.0200178 -76.2126 7.33971 -5.31469 -3.08267 27.3381 32.7467 0.0 0.0 0.0 13.3798 7.3065 -0.212009 -44.0206 -0.742164 6.55174 36.1377 15.6744 -4.57994 -9.45161 0.0 0.0 -0.0 0.0 -0.0 6.92758 -33.1678 14.5432 -23.6519 -0.234433 -3.5963 37.3122 32.6683 5.84326 -5.78567 0.0 0.0 0.0 0.0 0.0 
3369.32004495 708.358 -1555.12791128 -174.454354642 85.7525647546 171.093529651 1.11787 0.623577 1.12748 1.11841 0.550574 1.16487 1.12993 0.318226 1.2485 1.12812 0.511396 1.18259 -0.0057119 0.222121 -2.85692 0.0273301 2.73405 -3.05007 -0.0 0.0 -0.0 -2.50074 23.1517 -0.766317 -16.4053 -13.4811 76.6889 1.04051 -27.2677 0.252384 -50.3368 -4.11131 4.7004 0.398269 28.7175 13.452 -0.0 0.0 -0.0 11.3888 -5.95275 -22.0087 -20.8534 39.2907 -59.5583 0.424567 11.8774 -0.0441649 -75.7036 7.27474 -5.31693 -3.18912 27.292 33.5252 0.0 0.0 0.0 14.5488 8.97218 -0.613714 -42.9335 -0.663866 6.40399 40.2087 14.7524 -4.94762 -10.6187 0.0 0.0 -0.0 0.0 -0.0 5.71829 -34.367 14.7559 -23.9558 -0.227741 -3.64246 37.8191 31.0006 5.77029 -6.37895 0.0 0.0 0.0 0.0 0.0 
3361.15200955 707.639 -1552.01204934 -174.932509508 85.3777794285 171.345110703 0.70962 0.878934 1.25628 0.710144 0.797219 1.30965 0.728951 0.52273 1.44134 0.726823 0.743782 1.34072 -0.512584 1.11189 -2.4472 -0.479358 3.97505 -2.49284 -0.0 0.0 -0.0 -2.6401 23.7929 -0.838761 -17.3654 -11.0498 75.9054 1.01858 -26.7737 0.242418 -49.5285 -4.01663 4.65802 0.255975 28.9334 12.7325 -0.0 0.0 -0.0 11.523 -4.28752 -22.4627 -17.5526 40.6058 -61.3584 0.451388 12.6045 -0.0498518 -76.878 7.4246 -5.31088 -3.45967 27.1723 35.5331 0.0 0.0 0.0 16.4648 9.28408 -1.14917 -40.6922 -0.511393 6.0949 39.5039 14.5605 -4.88149 -13.3253 0.0 0.0 -0.0 0.0 -0.0 4.4129 -36.5494 14.0103 -21.8495 -0.26908 -3.3219 37.7494 32.6822 5.89078 -6.06614 0.0 0.0 0.0 0.0 0.0 
3357.72979962 711.968 -1555.1966736 174.653139044 86.9466662696 -178.210574574 0.423099 1.15451 1.44412 0.423634 1.06028 1.51464 0.452589 0.732065 1.69774 0.449937 0.990972 1.56086 -0.917655 1.6669 -2.04914 -0.886789 4.64167 -1.98608 -0.0 0.0 -0.0 -2.86192 23.9267 -1.11536 -17.6243 -9.28694 75.5544 0.935966 -24.8744 0.206427 -48.9457 -3.94875 4.62663 0.153202 29.1819 12.2482 -0.0 0.0 -0.0 11.7727 -2.87491 -23.1221 -15.0153 41.9951 -63.0397 0.477432 13.3065 -0.0556908 -77.9506 7.5613 -5.30264 -3.6571 27.2919 37.0914 0.0 0.0 0.0 18.8357 8.30723 -1.72405 -36.9989 -0.286961 5.57355 38.7876 14.27 -4.8121 -15.2324 0.0 0.0 -0.0 0.0 -0.0 2.79207 -36.6301 13.2732 -20.6026 -0.287988 -3.13151 37.6686 33.9775 5.98796 -5.85434 0.0 0.0 0.0 0.0 0.0 
3350.77274116 716.541 -1559.88856631 170.11129469 88.2399098826 -173.227352101 0.409279 1.15902 1.84696 0.410576 1.03917 1.91694 0.446711 0.629871 2.08748 0.441893 0.951583 1.96188 -3.10974 1.07062 -2.15423 -3.08786 3.62258 -2.0822 -0.0 0.0 -0.0 -2.77827 24.3367 -0.922914 -18.516 -7.68222 74.5428 0.779046 -21.1024 0.14511 -49.3492 -3.99572 4.64843 -0.154188 29.0709 10.5242 -0.0 0.0 -0.0 12.049 -1.82683 -23.804 -11.7021 44.4358 -64.8794 0.518416 14.403 -0.0655051 -79.6867 7.78207 -5.28385 -3.90367 27.4357 39.071 0.0 0.0 0.0 20.0791 5.29072 -2.48201 -30.0721 0.0412968 4.56217 36.5693 13.8134 -4.59755 -18.5295 0.0 0.0 -0.0 0.0 -0.0 0.335518 -38.4075 11.6315 -15.212 -0.321931 -2.30541 37.809 33.786 5.98687 -4.15075 0.0 0.0 0.0 0.0 0.0 
